<?xml version="1.0" encoding="utf-8"?>
<!-- Generator: Adobe Illustrator 16.0.0, SVG Export Plug-In . SVG Version: 6.00 Build 0)  -->
<!DOCTYPE svg PUBLIC "-//W3C//DTD SVG 1.1//EN" "http://www.w3.org/Graphics/SVG/1.1/DTD/svg11.dtd">
<svg version="1.1" id="Capa_1" xmlns="http://www.w3.org/2000/svg" xmlns:xlink="http://www.w3.org/1999/xlink" x="0px" y="0px"
	 width="184.252px" height="66.414px" viewBox="1.874 5.293 184.252 66.414" enable-background="new 1.874 5.293 184.252 66.414"
	 xml:space="preserve">
<g>
	<g>
		<g>
			<defs>
				<path id="SVGID_1_" d="M50.046,18.517L48.285,20.7c0.215,4.429,0.833,9.726,0.625,14.694c-3.029,0.487-6.173,1.097-9.407,1.8
					l-5.146,8.141c4.599-1.405,9.171-2.655,13.713-3.743c-0.124,0.473-0.262,0.937-0.416,1.389c0,0-2.315,8.794-16.12,10.267
					c-6.039,0.645-11.198-0.035-15.056-2.115c-3.991-2.15-6.39-5.311-7.669-9.201c-0.51-1.559-0.865-3.543-0.787-5.166
					c0.026-0.586,0.072-1.17,0.136-1.748C9.803,19.728,23.198,7.696,38.804,7.696c3.867,0,7.568,0.715,10.979,2.017
					C54.803,12.513,53.362,14.407,50.046,18.517L50.046,18.517z M67.115,26.328c1.608,3.735,2.502,7.849,2.502,12.171
					c0,17.01-13.799,30.805-30.813,30.805c-2.282,0-4.507-0.25-6.647-0.723c-4.456-1.549-3.102-5.424,1.155-6.756
					c2.773-0.867,7.521-3.037,11.293-6.398c4.83-4.307,6.819-9.366,7.728-14.814c2.867-0.63,5.723-1.195,8.566-1.697l3.963-4.82
					c-3.65-0.097-7.643,0.167-11.901,0.712c0.227-3.495,0.276-7.092,0.558-10.706c0,0,0.649-3.078,5.444-3.313
					C63.257,20.577,65.46,23.332,67.115,26.328L67.115,26.328z"/>
			</defs>
			<clipPath id="SVGID_2_">
				<use xlink:href="#SVGID_1_"  overflow="visible"/>
			</clipPath>
			<polygon clip-path="url(#SVGID_2_)" fill="#007948" stroke="#211915" stroke-width="0.5669" stroke-miterlimit="2.6131" points="
				4.686,1.497 72.727,1.497 72.727,75.569 4.686,75.569 			"/>
		</g>
	</g>
	<g>
		<g>
			<defs>
				<path id="SVGID_3_" d="M50.046,18.517L48.285,20.7c0.215,4.429,0.833,9.726,0.625,14.694c-3.029,0.487-6.173,1.097-9.407,1.8
					l-5.146,8.141c4.599-1.405,9.171-2.655,13.713-3.743c-0.124,0.473-0.262,0.937-0.416,1.389c0,0-2.315,8.794-16.12,10.267
					c-6.039,0.645-11.198-0.035-15.056-2.115c-3.991-2.15-6.39-5.311-7.669-9.201c-0.51-1.559-0.865-3.543-0.787-5.166
					c0.026-0.586,0.072-1.17,0.136-1.748C9.803,19.728,23.198,7.696,38.804,7.696c3.867,0,7.568,0.715,10.979,2.017
					C54.803,12.513,53.362,14.407,50.046,18.517L50.046,18.517z M67.115,26.328c1.608,3.735,2.502,7.849,2.502,12.171
					c0,17.01-13.799,30.805-30.813,30.805c-2.282,0-4.507-0.25-6.647-0.723c-4.456-1.549-3.102-5.424,1.155-6.756
					c2.773-0.867,7.521-3.037,11.293-6.398c4.83-4.307,6.819-9.366,7.728-14.814c2.867-0.63,5.723-1.195,8.566-1.697l3.963-4.82
					c-3.65-0.097-7.643,0.167-11.901,0.712c0.227-3.495,0.276-7.092,0.558-10.706c0,0,0.649-3.078,5.444-3.313
					C63.257,20.577,65.46,23.332,67.115,26.328L67.115,26.328z"/>
			</defs>
			<clipPath id="SVGID_4_">
				<use xlink:href="#SVGID_3_"  overflow="visible"/>
			</clipPath>
			<g clip-path="url(#SVGID_4_)">
				
					<radialGradient id="SVGID_5_" cx="606.4443" cy="824.3467" r="54.5254" gradientTransform="matrix(1 0 0 1 -585.1914 -779.6699)" gradientUnits="userSpaceOnUse">
					<stop  offset="0" style="stop-color:#90BA88"/>
					<stop  offset="0.66" style="stop-color:#007948"/>
					<stop  offset="1" style="stop-color:#007948"/>
				</radialGradient>
				<path fill="url(#SVGID_5_)" d="M12.997,32.142c3.433-14.12,17.659-22.8,31.779-19.366c14.119,3.416,22.78,17.659,19.365,31.761
					c-3.433,14.104-17.658,22.781-31.778,19.35C18.244,60.47,9.581,46.262,12.997,32.142z"/>
			</g>
		</g>
	</g>
</g>
<path fill="#211915" d="M170.637,54.206v-4.631c0.035,0,0.087,0,0.142,0c2.43,0,3.646-1.146,3.646-3.504V43.87h-2.024
	c-0.65,0-1.248,0.021-1.761,0.07v-4.084c0.545-0.035,1.146-0.053,1.761-0.053h1.989v-0.301c0-1.603-0.403-2.711-1.196-3.309
	c-0.6-0.441-1.443-0.723-2.554-0.828v-4.84c1.146,0.019,2.253,0.177,3.326,0.476c1.163,0.334,2.187,0.88,3.065,1.672
	c0.896,0.792,1.601,1.849,2.146,3.168c0.526,1.303,0.812,2.958,0.812,4.931v5.266c0,1.213-0.213,2.322-0.636,3.309
	c-0.422,1.004-1.021,1.865-1.796,2.588c-0.757,0.725-1.673,1.285-2.729,1.672c-1.059,0.406-2.221,0.602-3.504,0.602L170.637,54.206
	L170.637,54.206z M170.637,30.525v4.842c-0.37-0.035-0.757-0.052-1.181-0.052c-1.004,0-1.92,0.07-2.729,0.247
	c-0.81,0.176-1.495,0.387-2.096,0.65c-0.599,0.282-1.091,0.564-1.513,0.881c-0.405,0.3-0.705,0.581-0.899,0.845h-0.21v-1.831
	c0-0.617,0.143-1.25,0.439-1.92c0.299-0.669,0.773-1.268,1.442-1.831c0.649-0.545,1.517-0.985,2.589-1.338
	c1.057-0.334,2.342-0.51,3.838-0.51C170.426,30.509,170.532,30.525,170.637,30.525L170.637,30.525z M170.637,39.856v4.084
	c-0.353,0.035-0.651,0.07-0.933,0.123c-0.723,0.123-1.305,0.316-1.729,0.547c-0.422,0.244-0.723,0.547-0.879,0.916
	c-0.178,0.369-0.266,0.773-0.266,1.23c0,0.898,0.334,1.604,1.021,2.096c0.651,0.457,1.587,0.705,2.782,0.723v4.631h-0.459
	c-1.354,0-2.587-0.193-3.73-0.564c-1.125-0.352-2.095-0.859-2.904-1.494c-0.793-0.635-1.426-1.408-1.85-2.291
	c-0.439-0.879-0.668-1.848-0.668-2.887c0-1.02,0.192-1.971,0.598-2.833c0.389-0.882,1.039-1.638,1.92-2.271
	c0.896-0.636,2.076-1.146,3.521-1.517C168.102,40.085,169.282,39.928,170.637,39.856L170.637,39.856z M102.377,54.206v-4.631
	c0.054,0,0.089,0,0.142,0c2.432,0,3.645-1.146,3.645-3.504V43.87h-2.022c-0.649,0-1.25,0.021-1.762,0.07v-4.084
	c0.565-0.035,1.146-0.053,1.762-0.053h1.989v-0.301c0-1.603-0.404-2.711-1.18-3.309c-0.601-0.441-1.461-0.723-2.571-0.828v-4.84
	c1.161,0.019,2.272,0.177,3.327,0.476c1.162,0.334,2.186,0.88,3.063,1.672c0.897,0.792,1.62,1.849,2.148,3.168
	c0.546,1.303,0.81,2.958,0.81,4.931v5.266c0,1.213-0.212,2.322-0.634,3.309c-0.422,1.004-1.021,1.865-1.776,2.588
	c-0.775,0.725-1.69,1.285-2.746,1.672c-1.059,0.406-2.221,0.602-3.485,0.602L102.377,54.206L102.377,54.206z M133.047,38.325
	c-0.388-0.651-1.108-1.213-2.165-1.689c-1.038-0.458-2.376-0.687-4.032-0.687c-0.81,0-1.603,0.159-2.356,0.458
	c-0.774,0.317-1.443,0.739-2.008,1.303c-0.563,0.545-1.004,1.198-1.355,1.918c-0.334,0.738-0.512,1.531-0.512,2.377
	c0,2.097,0.582,3.785,1.709,5.07s2.658,1.938,4.613,1.938c1.637,0,2.955-0.229,3.941-0.67c0.986-0.438,1.689-0.916,2.076-1.461
	h0.213v2.605c0,1.391-0.616,2.535-1.831,3.416c-1.231,0.896-2.888,1.338-4.947,1.338c-1.584,0-3.081-0.283-4.489-0.863
	c-1.427-0.582-2.658-1.373-3.713-2.393c-1.059-1.023-1.902-2.201-2.556-3.594c-0.633-1.393-0.95-2.904-0.95-4.543
	s0.281-3.188,0.828-4.666c0.545-1.461,1.355-2.746,2.411-3.856c1.073-1.091,2.358-1.972,3.892-2.623
	c1.531-0.652,3.258-0.986,5.213-0.986c0.896,0,1.74,0.141,2.5,0.387c0.772,0.265,1.426,0.616,1.971,1.057
	c0.547,0.458,0.986,0.985,1.304,1.567c0.299,0.598,0.458,1.231,0.458,1.919v2.676h-0.213L133.047,38.325L133.047,38.325z
	 M157.01,43.571c0,7.166-3.347,10.758-10.019,10.758c-1.408,0-2.729-0.229-3.961-0.688c-1.232-0.439-2.289-1.109-3.205-2.008
	c-0.896-0.896-1.619-1.973-2.131-3.238c-0.527-1.285-0.791-2.766-0.791-4.438v-13.01h1.055c1.64,0,2.837,0.335,3.594,1.004
	c0.74,0.686,1.126,1.708,1.126,3.063v8.4c0,2.076,0.44,3.59,1.321,4.506c0.896,0.916,1.988,1.355,3.291,1.355
	c1.197,0,2.148-0.404,2.889-1.27c0.74-0.863,1.092-2.27,1.092-4.227V30.949h1.021c1.674,0,2.869,0.335,3.609,1.004
	c0.739,0.686,1.108,1.708,1.108,3.063V43.571z M91.78,28.396c-0.458-0.141-0.951-0.264-1.461-0.352
	c-0.528-0.106-1.146-0.159-1.851-0.159c-0.598,0-1.144,0.053-1.636,0.176c-0.493,0.107-0.916,0.318-1.268,0.616
	c-0.353,0.3-0.635,0.687-0.846,1.18c-0.211,0.493-0.316,1.126-0.316,1.885v2.042h6.531v1.566c0,0.511-0.123,0.969-0.369,1.356
	c-0.247,0.405-0.563,0.74-0.951,1.021c-0.405,0.281-0.828,0.494-1.321,0.634c-0.475,0.141-0.951,0.211-1.444,0.211h-2.446v15.248
	h-2.289c-0.915,0-1.707-0.318-2.395-0.951c-0.704-0.633-1.039-1.443-1.039-2.447V31.284c0-0.792,0.142-1.673,0.44-2.659
	c0.299-0.969,0.792-1.884,1.497-2.729c0.704-0.845,1.637-1.567,2.765-2.148c1.127-0.581,2.535-0.862,4.19-0.862
	c1.25,0,2.288,0.316,3.116,0.95c0.845,0.634,1.25,1.515,1.25,2.658v1.902H91.78L91.78,28.396z M102.377,30.525v4.842
	c-0.368-0.035-0.757-0.052-1.161-0.052c-1.021,0-1.938,0.07-2.746,0.247c-0.811,0.176-1.497,0.387-2.096,0.65
	c-0.6,0.282-1.092,0.564-1.496,0.881c-0.423,0.3-0.723,0.581-0.916,0.845H93.75v-1.831c0-0.617,0.141-1.25,0.441-1.92
	c0.299-0.669,0.774-1.268,1.443-1.831c0.668-0.545,1.53-0.985,2.587-1.338c1.059-0.334,2.344-0.51,3.839-0.51
	C102.167,30.509,102.274,30.525,102.377,30.525L102.377,30.525z M102.377,39.856v4.084c-0.334,0.035-0.65,0.07-0.933,0.123
	c-0.724,0.123-1.305,0.316-1.727,0.547c-0.422,0.244-0.723,0.547-0.881,0.916c-0.176,0.369-0.264,0.773-0.264,1.23
	c0,0.898,0.352,1.604,1.021,2.096c0.651,0.457,1.585,0.705,2.78,0.723v4.631h-0.438c-1.372,0-2.604-0.193-3.731-0.564
	c-1.146-0.352-2.111-0.859-2.904-1.494c-0.81-0.635-1.426-1.408-1.848-2.291c-0.44-0.879-0.669-1.848-0.669-2.887
	c0-1.02,0.211-1.971,0.599-2.833c0.369-0.882,1.021-1.638,1.918-2.271c0.882-0.636,2.061-1.146,3.504-1.517
	C99.843,40.085,101.022,39.928,102.377,39.856z"/>
</svg>
